<?xml version="1.0" encoding="UTF-8" standalone="no"?><!-- Generator: Gravit.io --><svg xmlns="http://www.w3.org/2000/svg" xmlns:xlink="http://www.w3.org/1999/xlink" style="isolation:isolate" viewBox="0 0 1000 1000" width="1000pt" height="1000pt"><defs><clipPath id="_clipPath_CRLRYqsCQ4DE5ZfKX9IDLhpNzmetsTbP"><rect width="1000" height="1000"/></clipPath></defs><g clip-path="url(#_clipPath_CRLRYqsCQ4DE5ZfKX9IDLhpNzmetsTbP)"><g><rect x="696.495" y="832.312" width="9.582" height="35.707" transform="matrix(-0.868,0.496,-0.496,-0.868,1731.816,1240.795)" fill="rgb(0,0,0)"/><rect x="290.383" y="128.759" width="9.582" height="35.133" transform="matrix(0.871,-0.491,0.491,0.871,-33.809,163.904)" fill="rgb(0,0,0)"/><rect x="141.952" y="277.57" width="9.582" height="35.133" transform="matrix(0.497,-0.868,0.868,0.497,-182.293,275.788)" fill="rgb(0,0,0)"/><rect x="87.663" y="480.653" width="9.582" height="35.133" transform="matrix(0.014,-1,1,0.014,-407.007,583.715)" fill="rgb(0,0,0)"/><rect x="141.996" y="684.251" width="9.582" height="35.133" transform="matrix(-0.488,-0.873,0.873,-0.488,-393.945,1172.672)" fill="rgb(0,0,0)"/><rect x="290.592" y="832.312" width="9.582" height="35.707" transform="matrix(-0.868,-0.496,0.496,-0.868,130.402,1734.933)" fill="rgb(0,0,0)"/><rect x="493.516" y="886.844" width="9.582" height="35.707" transform="matrix(-1,-0.018,0.018,-1,980.226,1818.231)" fill="rgb(0,0,0)"/><rect x="493.195" y="74.55" width="9.582" height="35.133" transform="matrix(1,0,0,1,0,0)" fill="rgb(0,0,0)"/><rect x="696.704" y="128.759" width="9.582" height="35.133" transform="matrix(0.871,0.491,-0.491,0.871,162.401,-325.78)" fill="rgb(0,0,0)"/><rect x="845.135" y="277.57" width="9.582" height="35.133" transform="matrix(0.497,0.868,-0.868,0.497,683.612,-589.069)" fill="rgb(0,0,0)"/><rect x="899.424" y="480.653" width="9.582" height="35.133" transform="matrix(0.014,1,-1,0.014,1389.775,-412.856)" fill="rgb(0,0,0)"/><rect x="845.091" y="684.251" width="9.582" height="35.133" transform="matrix(-0.488,0.873,-0.873,-0.488,1877.381,302.956)" fill="rgb(0,0,0)"/></g><g><rect x="410.468" y="82.697" width="4.329" height="25.931" transform="matrix(0.977,-0.214,0.214,0.977,-10.915,90.73)" fill="rgb(0,0,0)"/><rect x="452.718" y="75.998" width="4.329" height="25.931" transform="matrix(0.993,-0.118,0.118,0.993,-7.323,54.341)" fill="rgb(0,0,0)"/><rect x="368.704" y="94.062" width="4.329" height="25.931" transform="matrix(0.95,-0.312,0.312,0.95,-14.885,120.903)" fill="rgb(0,0,0)"/><rect x="87.054" y="442.662" width="4.329" height="25.931" transform="matrix(0.102,-0.995,0.995,0.102,-373.148,497.748)" fill="rgb(0,0,0)"/><rect x="220.539" y="179.484" width="4.329" height="25.931" transform="matrix(0.748,-0.664,0.664,0.748,-71.607,196.323)" fill="rgb(0,0,0)"/><rect x="254.149" y="152.576" width="4.329" height="25.931" transform="matrix(0.811,-0.585,0.585,0.811,-48.408,181.202)" fill="rgb(0,0,0)"/><rect x="190.096" y="209.989" width="4.329" height="25.931" transform="matrix(0.682,-0.731,0.731,0.682,-101.916,211.429)" fill="rgb(0,0,0)"/><rect x="162.768" y="243.522" width="4.329" height="25.931" transform="matrix(0.588,-0.809,0.809,0.588,-139.504,238.969)" fill="rgb(0,0,0)"/><rect x="828.715" y="243.522" width="4.329" height="25.931" transform="matrix(0.588,0.809,-0.809,0.588,549.485,-566.291)" fill="rgb(0,0,0)"/><rect x="87.054" y="442.662" width="4.329" height="25.931" transform="matrix(0.102,-0.995,0.995,0.102,-373.148,497.748)" fill="rgb(0,0,0)"/><rect x="104.559" y="358.438" width="4.329" height="25.931" transform="matrix(0.313,-0.95,0.95,0.313,-279.416,356.334)" fill="rgb(0,0,0)"/><rect x="120.108" y="318.29" width="4.329" height="25.931" transform="matrix(0.408,-0.913,0.913,0.408,-230.055,307.89)" fill="rgb(0,0,0)"/><rect x="93.553" y="400.107" width="4.329" height="25.931" transform="matrix(0.223,-0.975,0.975,0.223,-328.297,414.387)" fill="rgb(0,0,0)"/><rect x="120.149" y="652.507" width="4.329" height="25.931" transform="matrix(-0.419,-0.908,0.908,-0.419,-430.777,1055.221)" fill="rgb(0,0,0)"/><rect x="94.089" y="570.486" width="4.329" height="25.931" transform="matrix(-0.214,-0.977,0.977,-0.214,-453.057,802.398)" fill="rgb(0,0,0)"/><rect x="87.013" y="528.017" width="4.329" height="25.931" transform="matrix(-0.115,-0.993,0.993,-0.115,-438.031,691.532)" fill="rgb(0,0,0)"/><rect x="104.576" y="612.586" width="4.329" height="25.931" transform="matrix(-0.305,-0.952,0.952,-0.305,-456.43,918.035)" fill="rgb(0,0,0)"/><rect x="254.311" y="817.684" width="4.329" height="25.931" transform="matrix(-0.821,-0.571,0.571,-0.821,-6.969,1659.114)" fill="rgb(0,0,0)"/><rect x="190.284" y="760.176" width="4.329" height="25.931" transform="matrix(-0.68,-0.734,0.734,-0.68,-243.978,1439.711)" fill="rgb(0,0,0)"/><rect x="162.665" y="727.148" width="4.329" height="25.931" transform="matrix(-0.602,-0.798,0.798,-0.602,-326.845,1317.342)" fill="rgb(0,0,0)"/><rect x="220.657" y="791.157" width="4.329" height="25.931" transform="matrix(-0.746,-0.666,0.666,-0.746,-146.964,1552.135)" fill="rgb(0,0,0)"/><rect x="452.712" y="894.759" width="4.329" height="25.931" transform="matrix(-0.996,-0.093,0.093,-0.996,823.26,1853.859)" fill="rgb(0,0,0)"/><rect x="368.681" y="876.172" width="4.329" height="25.931" transform="matrix(-0.952,-0.305,0.305,-0.952,453.216,1848.985)" fill="rgb(0,0,0)"/><rect x="328.391" y="860.996" width="4.329" height="25.931" transform="matrix(-0.917,-0.399,0.399,-0.917,284.835,1807.227)" fill="rgb(0,0,0)"/><rect x="410.363" y="888.212" width="4.329" height="25.931" transform="matrix(-0.977,-0.214,0.214,-0.977,622.98,1869.687)" fill="rgb(0,0,0)"/><rect x="328.374" y="109.193" width="4.329" height="25.931" transform="matrix(0.918,-0.398,0.398,0.918,-21.318,141.528)" fill="rgb(0,0,0)"/><rect x="581.704" y="82.697" width="4.329" height="25.931" transform="matrix(0.977,0.214,-0.214,0.977,34.106,-123.004)" fill="rgb(0,0,0)"/><rect x="539.455" y="75.998" width="4.329" height="25.931" transform="matrix(0.993,0.118,-0.118,0.993,14.296,-63.339)" fill="rgb(0,0,0)"/><rect x="623.469" y="94.062" width="4.329" height="25.931" transform="matrix(0.95,0.312,-0.312,0.95,64.507,-189.636)" fill="rgb(0,0,0)"/><rect x="905.119" y="442.662" width="4.329" height="25.931" transform="matrix(0.102,0.995,-0.995,0.102,1267.666,-493.522)" fill="rgb(0,0,0)"/><rect x="771.633" y="179.484" width="4.329" height="25.931" transform="matrix(0.748,0.664,-0.664,0.748,322.763,-465.098)" fill="rgb(0,0,0)"/><rect x="738.024" y="152.576" width="4.329" height="25.931" transform="matrix(0.811,0.585,-0.585,0.811,236.67,-401.691)" fill="rgb(0,0,0)"/><rect x="802.077" y="209.989" width="4.329" height="25.931" transform="matrix(0.682,0.731,-0.731,0.682,418.604,-517.179)" fill="rgb(0,0,0)"/><rect x="905.119" y="442.662" width="4.329" height="25.931" transform="matrix(0.102,0.995,-0.995,0.102,1267.666,-493.522)" fill="rgb(0,0,0)"/><rect x="887.614" y="358.438" width="4.329" height="25.931" transform="matrix(0.313,0.95,-0.95,0.313,963.569,-589.951)" fill="rgb(0,0,0)"/><rect x="872.065" y="318.29" width="4.329" height="25.931" transform="matrix(0.408,0.913,-0.913,0.408,820.383,-602.076)" fill="rgb(0,0,0)"/><rect x="898.619" y="400.107" width="4.329" height="25.931" transform="matrix(0.223,0.975,-0.975,0.223,1102.86,-557.086)" fill="rgb(0,0,0)"/><rect x="872.023" y="652.507" width="4.329" height="25.931" transform="matrix(-0.419,0.908,-0.908,-0.419,1844.578,150.302)" fill="rgb(0,0,0)"/><rect x="898.083" y="570.486" width="4.329" height="25.931" transform="matrix(-0.214,0.977,-0.977,-0.214,1662.924,-170.994)" fill="rgb(0,0,0)"/><rect x="905.159" y="528.017" width="4.329" height="25.931" transform="matrix(-0.115,0.993,-0.993,-0.115,1548.661,-298.414)" fill="rgb(0,0,0)"/><rect x="887.597" y="612.586" width="4.329" height="25.931" transform="matrix(-0.305,0.952,-0.952,-0.305,1756.926,-30.967)" fill="rgb(0,0,0)"/><rect x="737.861" y="817.684" width="4.329" height="25.931" transform="matrix(-0.821,0.571,-0.571,-0.821,1821.756,1090.409)" fill="rgb(0,0,0)"/><rect x="801.888" y="760.176" width="4.329" height="25.931" transform="matrix(-0.68,0.734,-0.734,-0.68,1917.646,708.641)" fill="rgb(0,0,0)"/><rect x="829.507" y="727.148" width="4.329" height="25.931" transform="matrix(-0.602,0.798,-0.798,-0.602,1923.345,521.717)" fill="rgb(0,0,0)"/><rect x="771.516" y="791.157" width="4.329" height="25.931" transform="matrix(-0.746,0.666,-0.666,-0.746,1886.406,888.013)" fill="rgb(0,0,0)"/><rect x="539.461" y="894.759" width="4.329" height="25.931" transform="matrix(-0.996,0.093,-0.093,-0.996,1165.415,1761.077)" fill="rgb(0,0,0)"/><rect x="623.491" y="876.172" width="4.329" height="25.931" transform="matrix(-0.952,0.305,-0.305,-0.952,1492.428,1545.429)" fill="rgb(0,0,0)"/><rect x="663.782" y="860.996" width="4.329" height="25.931" transform="matrix(-0.917,0.399,-0.399,-0.917,1625.363,1409.513)" fill="rgb(0,0,0)"/><rect x="581.81" y="888.212" width="4.329" height="25.931" transform="matrix(-0.977,0.214,-0.214,-0.977,1347.012,1656.771)" fill="rgb(0,0,0)"/><rect x="663.799" y="109.193" width="4.329" height="25.931" transform="matrix(0.918,0.398,-0.398,0.918,103.51,-254.772)" fill="rgb(0,0,0)"/></g><g><text transform="matrix(0.319,0,0,0.319,461.096,172.03)" style="font-family:'Verdana';font-weight:400;font-size:180px;font-style:normal;fill:#000000;stroke:none;">12</text><text transform="matrix(0.319,0,0,0.319,657.231,221.855)" style="font-family:'Verdana';font-weight:400;font-size:180px;font-style:normal;fill:#000000;stroke:none;">1</text><text transform="matrix(0.319,0,0,0.319,787.223,343.224)" style="font-family:'Verdana';font-weight:400;font-size:180px;font-style:normal;fill:#000000;stroke:none;">2</text><text transform="matrix(0.319,0,0,0.319,824.592,521.457)" style="font-family:'Verdana';font-weight:400;font-size:180px;font-style:normal;fill:#000000;stroke:none;">3</text><text transform="matrix(0.319,0,0,0.319,787.223,696.074)" style="font-family:'Verdana';font-weight:400;font-size:180px;font-style:normal;fill:#000000;stroke:none;">4</text><text transform="matrix(0.319,0,0,0.319,657.231,814.887)" style="font-family:'Verdana';font-weight:400;font-size:180px;font-style:normal;fill:#000000;stroke:none;">5</text><text transform="matrix(0.319,0,0,0.319,479.302,849.822)" style="font-family:'Verdana';font-weight:400;font-size:180px;font-style:normal;fill:#000000;stroke:none;">6</text><text transform="matrix(0.319,0,0,0.319,301.372,814.887)" style="font-family:'Verdana';font-weight:400;font-size:180px;font-style:normal;fill:#000000;stroke:none;">7</text><text transform="matrix(0.319,0,0,0.319,171.917,696.074)" style="font-family:'Verdana';font-weight:400;font-size:180px;font-style:normal;fill:#000000;stroke:none;">8</text><text transform="matrix(0.319,0,0,0.319,134.548,521.457)" style="font-family:'Verdana';font-weight:400;font-size:180px;font-style:normal;fill:#000000;stroke:none;">9</text><text transform="matrix(0.319,0,0,0.319,171.917,343.224)" style="font-family:'Verdana';font-weight:400;font-size:180px;font-style:normal;fill:#000000;stroke:none;">10</text><text transform="matrix(0.319,0,0,0.319,284.342,233.353)" style="font-family:'Verdana';font-weight:400;font-size:180px;font-style:normal;fill:#000000;stroke:none;">11</text><text transform="matrix(0.267,0,0,0.267,478.362,222.594)" style="font-family:'Verdana';font-weight:400;font-size:114px;font-style:normal;fill:#ff0000;stroke:none;">24</text><text transform="matrix(0.267,0,0,0.267,625.148,276.025)" style="font-family:'Verdana';font-weight:400;font-size:114px;font-style:normal;fill:#ff0000;stroke:none;">13</text><text transform="matrix(0.267,0,0,0.267,747.975,385.896)" style="font-family:'Verdana';font-weight:400;font-size:114px;font-style:normal;fill:#ff0000;stroke:none;">14</text><text transform="matrix(0.267,0,0,0.267,773.065,519.5)" style="font-family:'Verdana';font-weight:400;font-size:114px;font-style:normal;fill:#ff0000;stroke:none;">15</text><text transform="matrix(0.267,0,0,0.267,733.817,665.474)" style="font-family:'Verdana';font-weight:400;font-size:114px;font-style:normal;fill:#ff0000;stroke:none;">16</text><text transform="matrix(0.267,0,0,0.267,625.148,764.797)" style="font-family:'Verdana';font-weight:400;font-size:114px;font-style:normal;fill:#ff0000;stroke:none;">17</text><text transform="matrix(0.267,0,0,0.267,476.406,794.001)" style="font-family:'Verdana';font-weight:400;font-size:114px;font-style:normal;fill:#ff0000;stroke:none;">18</text><text transform="matrix(0.267,0,0,0.267,327.664,764.797)" style="font-family:'Verdana';font-weight:400;font-size:114px;font-style:normal;fill:#ff0000;stroke:none;">19</text><text transform="matrix(0.267,0,0,0.267,219.444,665.474)" style="font-family:'Verdana';font-weight:400;font-size:114px;font-style:normal;fill:#ff0000;stroke:none;">20</text><text transform="matrix(0.267,0,0,0.267,189.182,519.5)" style="font-family:'Verdana';font-weight:400;font-size:114px;font-style:normal;fill:#ff0000;stroke:none;">21</text><text transform="matrix(0.267,0,0,0.267,219.444,385.896)" style="font-family:'Verdana';font-weight:400;font-size:114px;font-style:normal;fill:#ff0000;stroke:none;">22</text><text transform="matrix(0.267,0,0,0.267,327.664,279.034)" style="font-family:'Verdana';font-weight:400;font-size:114px;font-style:normal;fill:#ff0000;stroke:none;">23</text></g><path d=" M 146.517 146.517 C 237.023 56.011 362.023 0 500 0 C 775.954 0 1000 224.046 1000 500 C 1000 775.954 775.954 1000 500 1000 C 224.046 1000 0 775.954 0 500 C 0 362.023 56.011 237.023 146.517 146.517 Z  M 500 40.579 C 750.261 40.579 953.455 246.444 953.455 500 C 953.455 753.576 750.261 959.421 500 959.442 C 249.739 959.442 46.545 753.576 46.545 500 C 46.545 246.444 249.739 40.579 500 40.579 Z  M 500 929.028" fill-rule="evenodd" fill="rgb(0,0,0)"/><path d=" M 504.299 492.627 C 502.772 491.1 500.663 490.155 498.334 490.155 C 493.678 490.155 489.897 493.936 489.897 498.592 C 489.897 503.249 493.678 507.03 498.334 507.03 C 502.991 507.03 506.772 503.249 506.772 498.592 C 506.772 496.264 505.826 494.155 504.299 492.627 Z  M 498.334 490.84 C 494.111 490.84 490.682 494.314 490.682 498.592 C 490.682 502.871 494.111 506.345 498.334 506.345 C 502.557 506.345 505.986 502.871 505.986 498.592 C 505.986 494.314 502.557 490.84 498.334 490.84 Z  M 498.334 505.832" fill-rule="evenodd" fill="rgb(0,0,0)"/></g></svg>